<mxfile host="Electron" agent="Mozilla/5.0 (Windows NT 10.0; Win64; x64) AppleWebKit/537.36 (KHTML, like Gecko) draw.io/24.7.17 Chrome/128.0.6613.36 Electron/32.0.1 Safari/537.36" version="24.7.17">
  <diagram name="Страница — 1" id="r40wr5CCcXCHfvYeTKJd">
    <mxGraphModel dx="840" dy="503" grid="1" gridSize="10" guides="1" tooltips="1" connect="1" arrows="1" fold="1" page="1" pageScale="1" pageWidth="1169" pageHeight="827" math="1" shadow="0">
      <root>
        <mxCell id="0" />
        <mxCell id="1" parent="0" />
        <mxCell id="c5y8Brq3jjEGUIZRLqkQ-5" style="edgeStyle=orthogonalEdgeStyle;rounded=0;orthogonalLoop=1;jettySize=auto;html=1;entryX=0;entryY=0.5;entryDx=0;entryDy=0;" parent="1" source="c5y8Brq3jjEGUIZRLqkQ-1" target="c5y8Brq3jjEGUIZRLqkQ-4" edge="1">
          <mxGeometry relative="1" as="geometry" />
        </mxCell>
        <mxCell id="c5y8Brq3jjEGUIZRLqkQ-1" value="" style="shape=cylinder3;whiteSpace=wrap;html=1;boundedLbl=1;backgroundOutline=1;size=15;" parent="1" vertex="1">
          <mxGeometry x="400" y="290" width="60" height="80" as="geometry" />
        </mxCell>
        <mxCell id="c5y8Brq3jjEGUIZRLqkQ-3" value="База данных&lt;div&gt;порохов&lt;/div&gt;" style="text;html=1;align=center;verticalAlign=middle;resizable=0;points=[];autosize=1;strokeColor=none;fillColor=none;" parent="1" vertex="1">
          <mxGeometry x="385" y="250" width="90" height="40" as="geometry" />
        </mxCell>
        <mxCell id="ZUE-Y3ovuz796MKkwsCk-7" style="edgeStyle=orthogonalEdgeStyle;rounded=0;orthogonalLoop=1;jettySize=auto;html=1;exitX=1;exitY=0.5;exitDx=0;exitDy=0;entryX=0;entryY=0.5;entryDx=0;entryDy=0;" edge="1" parent="1" source="c5y8Brq3jjEGUIZRLqkQ-4" target="ZUE-Y3ovuz796MKkwsCk-5">
          <mxGeometry relative="1" as="geometry" />
        </mxCell>
        <mxCell id="c5y8Brq3jjEGUIZRLqkQ-4" value="" style="shape=hexagon;perimeter=hexagonPerimeter2;whiteSpace=wrap;html=1;fixedSize=1;dashed=1;" parent="1" vertex="1">
          <mxGeometry x="500" y="255" width="250" height="150" as="geometry" />
        </mxCell>
        <mxCell id="c5y8Brq3jjEGUIZRLqkQ-6" value="Входные данные" style="text;html=1;align=center;verticalAlign=middle;resizable=0;points=[];autosize=1;strokeColor=none;fillColor=none;" parent="1" vertex="1">
          <mxGeometry x="560" y="220" width="120" height="30" as="geometry" />
        </mxCell>
        <mxCell id="c5y8Brq3jjEGUIZRLqkQ-8" value="Диапазон&amp;nbsp; &amp;nbsp; &amp;nbsp; &amp;nbsp; &amp;nbsp;&amp;nbsp;" style="rounded=0;whiteSpace=wrap;html=1;" parent="1" vertex="1">
          <mxGeometry x="562.5" y="260" width="125" height="40" as="geometry" />
        </mxCell>
        <mxCell id="ZUE-Y3ovuz796MKkwsCk-1" value="&lt;span style=&quot;text-wrap: wrap;&quot;&gt;&amp;nbsp;$$\varDelta$$&lt;/span&gt;" style="text;html=1;align=center;verticalAlign=middle;resizable=0;points=[];autosize=1;strokeColor=none;fillColor=none;" vertex="1" parent="1">
          <mxGeometry x="600" y="260" width="100" height="30" as="geometry" />
        </mxCell>
        <mxCell id="ZUE-Y3ovuz796MKkwsCk-2" value="Диапазон&amp;nbsp; &amp;nbsp; &amp;nbsp; &amp;nbsp; &amp;nbsp;&amp;nbsp;" style="rounded=0;whiteSpace=wrap;html=1;" vertex="1" parent="1">
          <mxGeometry x="562.5" y="310" width="125" height="40" as="geometry" />
        </mxCell>
        <mxCell id="ZUE-Y3ovuz796MKkwsCk-3" value="Набор марок порохов" style="rounded=0;whiteSpace=wrap;html=1;" vertex="1" parent="1">
          <mxGeometry x="562.5" y="360" width="125" height="40" as="geometry" />
        </mxCell>
        <mxCell id="ZUE-Y3ovuz796MKkwsCk-4" value="$$q / \omega$$" style="text;html=1;align=center;verticalAlign=middle;resizable=0;points=[];autosize=1;strokeColor=none;fillColor=none;" vertex="1" parent="1">
          <mxGeometry x="600" y="315" width="110" height="30" as="geometry" />
        </mxCell>
        <mxCell id="ZUE-Y3ovuz796MKkwsCk-13" style="edgeStyle=orthogonalEdgeStyle;rounded=0;orthogonalLoop=1;jettySize=auto;html=1;" edge="1" parent="1" source="ZUE-Y3ovuz796MKkwsCk-5" target="ZUE-Y3ovuz796MKkwsCk-8">
          <mxGeometry relative="1" as="geometry" />
        </mxCell>
        <mxCell id="ZUE-Y3ovuz796MKkwsCk-5" value="Математическая&amp;nbsp;&lt;div&gt;модель прямой&lt;/div&gt;&lt;div&gt;задачи&lt;/div&gt;" style="rounded=0;whiteSpace=wrap;html=1;" vertex="1" parent="1">
          <mxGeometry x="780" y="275" width="160" height="110" as="geometry" />
        </mxCell>
        <mxCell id="ZUE-Y3ovuz796MKkwsCk-8" value="" style="shape=hexagon;perimeter=hexagonPerimeter2;whiteSpace=wrap;html=1;fixedSize=1;dashed=1;" vertex="1" parent="1">
          <mxGeometry x="960" y="255" width="250" height="150" as="geometry" />
        </mxCell>
        <mxCell id="ZUE-Y3ovuz796MKkwsCk-9" value="Выходные данные" style="text;html=1;align=center;verticalAlign=middle;resizable=0;points=[];autosize=1;strokeColor=none;fillColor=none;" vertex="1" parent="1">
          <mxGeometry x="1017.5" y="220" width="130" height="30" as="geometry" />
        </mxCell>
        <mxCell id="ZUE-Y3ovuz796MKkwsCk-10" value="Длина ствола" style="rounded=0;whiteSpace=wrap;html=1;" vertex="1" parent="1">
          <mxGeometry x="1022.5" y="260" width="125" height="40" as="geometry" />
        </mxCell>
        <mxCell id="ZUE-Y3ovuz796MKkwsCk-11" value="Максимальное давление" style="rounded=0;whiteSpace=wrap;html=1;" vertex="1" parent="1">
          <mxGeometry x="1022.5" y="310" width="125" height="40" as="geometry" />
        </mxCell>
        <mxCell id="ZUE-Y3ovuz796MKkwsCk-12" value="Третий параметр" style="rounded=0;whiteSpace=wrap;html=1;" vertex="1" parent="1">
          <mxGeometry x="1022.5" y="360" width="125" height="40" as="geometry" />
        </mxCell>
      </root>
    </mxGraphModel>
  </diagram>
</mxfile>
